<svg width="375" height="303" viewBox="0 0 375 303" fill="none" xmlns="http://www.w3.org/2000/svg">
<mask id="mask0" mask-type="alpha" maskUnits="userSpaceOnUse" x="0" y="0" width="375" height="303">
<path d="M0.5 302.5V302.344V301.686V301.026V300.364V299.701V299.036V298.369V297.7V297.03V296.358V295.684V295.009V294.332V293.653V292.973V292.291V291.607V290.922V290.235V289.547V288.857V288.165V287.472V286.778V286.081V285.384V284.685V283.984V283.282V282.578V281.873V281.167V280.459V279.749V279.039V278.326V277.613V276.898V276.182V275.464V274.745V274.025V273.303V272.581V271.857V271.131V270.404V269.677V268.947V268.217V267.485V266.753V266.019V265.284V264.547V263.81V263.071V262.332V261.591V260.849V260.106V259.362V258.617V257.87V257.123V256.375V255.625V254.875V254.124V253.372V252.618V251.864V251.109V250.353V249.596V248.838V248.079V247.319V246.559V245.797V245.035V244.272V243.508V242.743V241.978V241.211V240.444V239.676V238.908V238.138V237.368V236.598V235.826V235.054V234.281V233.507V232.733V231.958V231.183V230.407V229.63V228.853V228.075V227.296V226.517V225.738V224.958V224.177V223.396V222.614V221.832V221.05V220.267V219.483V218.699V217.915V217.13V216.345V215.559V214.773V213.987V213.201V212.414V211.626V210.839V210.051V209.262V208.474V207.685V206.896V206.107V205.317V204.528V203.738V202.948V202.157V201.367V200.576V199.785V198.994V198.203V197.412V196.621V195.83V195.038V194.247V193.455V192.664V191.872V191.08V190.289V189.497V188.706V187.914V187.123V186.331V185.54V184.749V183.957V183.166V182.375V181.585V180.794V180.003V179.213V178.423V177.633V176.843V176.053V175.264V174.475V173.686V172.898V172.109V171.321V170.533V169.746V168.959V168.172V167.386V166.6V165.814V165.029V164.244V163.46V162.675V161.892V161.109V160.326V159.544V158.762V157.981V157.2V156.42V155.64V154.861V154.082V153.304V152.527V151.75V150.973V150.198V149.423V148.648V147.875V147.102V146.329V145.557V144.786V144.016V143.246V142.478V141.71V140.942V140.176V139.41V138.645V137.881V137.117V136.355V135.593V134.832V134.072V133.313V132.555V131.798V131.041V130.286V129.531V128.778V128.025V127.274V126.523V125.774V125.025V124.277V123.531V122.785V122.041V121.298V120.555V119.814V119.074V118.335V117.597V116.861V116.125V115.391V114.658V113.926V113.195V112.466V111.737V111.01V110.285V109.56V108.837V108.115V107.394V106.675V105.957V105.24V104.525V103.811V103.099V102.388V101.678V100.969V100.262V99.557V98.8529V98.1504V97.4493V96.7496V96.0515V95.3549V94.6598V93.9663V93.2743V92.5838V91.8949V91.2076V90.5219V89.8378V89.1553V88.4745V87.7953V87.1177V86.4419V85.7677V85.0951V84.4243V83.7552V83.0879V82.4222V81.7584V81.0962V80.4359V79.7774V79.1206V78.4657V77.8125V77.1613V76.5118V75.8643V75.2186V74.5747V73.9328V73.2928V72.6547V72.0186V71.3844V70.7521V70.1218V69.4935V68.8672V68.2429V67.6206V67.0004V66.3822V65.766V65.1519V64.5399V63.9299V63.3221V62.7164V62.1128V61.5114V60.9121V60.3149V59.72V59.1272V58.5366V57.9483V57.3621V56.7782V56.1966V55.6172V55.0401V54.4652V53.8927V53.3224V52.7545V52.1889V51.6257V51.0648V50.5063V49.9501V49.3964V48.845V48.2961V47.7496V47.2055V46.6639V46.1248V45.5881V45.054V44.5223V43.9931V43.4665V42.9424V42.4209V41.9019V41.3855V40.8716V40.3604V39.8518V39.3458V38.8424V38.3417V37.8437V37.3483V36.8556V36.3656V35.8783V35.3937V34.9118V34.4327V33.9563V33.4828V33.0119V32.5439V32.0787V31.6163V31.1567V30.7V30.2461V29.7951V29.347V28.9017V28.4594V28.0199V27.5834V27.1498V26.7192V26.2915V25.8668V25.4451V25.0264V24.6107V24.198V23.7884V23.3818V22.9782V22.5777V22.1803V21.786V21.3948V21.0068V20.6218V20.24V19.8613V19.4858V19.1135V18.7444V18.3785V18.0158V17.6563V17.3001V16.9471V16.5974V16.2509V15.9078V15.5679V15.2313V14.8981V14.5682V14.2417V13.9185V13.5987V13.2822V12.9692V12.6596V12.3534V12.0506V11.7513V11.4554V11.163V10.8741V10.5886V10.3067V10.0283V9.75341V9.48207V9.21429V8.95006V8.68942V8.43236V8.17891V7.92907V7.68285V7.44028V7.20135V6.96608V6.73449V6.50659V6.28238V6.06188V5.84511V5.63207V5.42277V5.21724V5.01548V4.81749V4.62331V4.43293V4.24637V4.06364V3.88475V3.70972V3.53856V3.37128V3.20789V3.0484V2.89283V2.74118V2.59348V2.44973V2.30994V2.17413V2.0423V1.91448V1.79067V1.67089V1.55514V1.44344V1.3358V1.23223V1.13275V1.03737V0.946094V0.858941V0.775922V0.697048V0.622332V0.551786V0.5H374.5V0.534448V0.588741V0.64561V0.705051V0.767055V0.831616V0.898727V0.968383V1.04058V1.1153V1.19255V1.27231V1.35459V1.43936V1.52664V1.61641V1.70866V1.80339V1.90059V2.00025V2.10237V2.20694V2.31396V2.42341V2.5353V2.64961V2.76633V2.88547V3.00701V3.13095V3.25728V3.386V3.51709V3.65056V3.78639V3.92457V4.06511V4.20799V4.35321V4.50077V4.65064V4.80284V4.95734V5.11416V5.27326V5.43466V5.59835V5.76431V5.93255V6.10305V6.27581V6.45082V6.62807V6.80756V6.98929V7.17324V7.35941V7.54779V7.73837V7.93116V8.12613V8.32329V8.52263V8.72415V8.92782V9.13366V9.34165V9.55178V9.76405V9.97845V10.195V10.4136V10.6344V10.8573V11.0822V11.3093V11.5384V11.7696V12.0029V12.2383V12.4757V12.7152V12.9567V13.2003V13.4458V13.6935V13.9431V14.1947V14.4484V14.704V14.9617V15.2213V15.4829V15.7465V16.0121V16.2796V16.549V16.8204V17.0938V17.3691V17.6463V17.9254V18.2064V18.4894V18.7742V19.0609V19.3496V19.6401V19.9324V20.2267V20.5228V20.8207V21.1205V21.4222V21.7257V22.031V22.3381V22.647V22.9578V23.2703V23.5846V23.9008V24.2187V24.5383V24.8598V25.183V25.5079V25.8346V26.1631V26.4932V26.8252V27.1588V27.4941V27.8312V28.1699V28.5103V28.8525V29.1963V29.5418V29.8889V30.2377V30.5882V30.9403V31.294V31.6494V32.0064V32.3651V32.7253V33.0872V33.4506V33.8157V34.1823V34.5505V34.9203V35.2917V35.6646V36.0391V36.4151V36.7926V37.1717V37.5524V37.9345V38.3182V38.7033V39.09V39.4782V39.8678V40.259V40.6516V41.0456V41.4412V41.8382V42.2366V42.6365V43.0378V43.4406V43.8447V44.2503V44.6573V45.0657V45.4755V45.8866V46.2992V46.7131V47.1284V47.5451V47.9631V48.3825V48.8032V49.2252V49.6486V50.0733V50.4993V50.9266V51.3552V51.7851V52.2163V52.6488V53.0826V53.5176V53.9539V54.3914V54.8302V55.2703V55.7115V56.154V56.5977V57.0427V57.4888V57.9362V58.3847V58.8345V59.2854V59.7375V60.1907V60.6452V61.1007V61.5575V62.0153V62.4743V62.9345V63.3957V63.8581V64.3216V64.7862V65.2519V65.7187V66.1865V66.6554V67.1254V67.5965V68.0686V68.5418V69.016V69.4913V69.9675V70.4448V70.9232V71.4025V71.8828V72.3642V72.8465V73.3298V73.814V74.2993V74.7855V75.2727V75.7608V76.2499V76.7399V77.2308V77.7226V78.2154V78.7091V79.2037V79.6991V80.1955V80.6928V81.1909V81.6899V82.1898V82.6905V83.192V83.6945V84.1977V84.7018V85.2067V85.7124V86.2189V86.7263V87.2344V87.7433V88.2531V88.7635V89.2748V89.7868V90.2996V90.8131V91.3274V91.8424V92.3581V92.8746V93.3918V93.9097V94.4283V94.9476V95.4676V95.9882V96.5096V97.0316V97.5543V98.0776V98.6016V99.1263V99.6515V100.177V100.704V101.231V101.759V102.287V102.816V103.346V103.876V104.407V104.938V105.47V106.002V106.535V107.069V107.603V108.137V108.672V109.208V109.744V110.281V110.818V111.356V111.894V112.432V112.971V113.511V114.051V114.591V115.132V115.673V116.215V116.757V117.3V117.843V118.386V118.93V119.474V120.019V120.564V121.109V121.655V122.201V122.748V123.294V123.841V124.389V124.937V125.485V126.033V126.582V127.131V127.68V128.23V128.78V129.33V129.88V130.431V130.982V131.533V132.084V132.636V133.188V133.74V134.292V134.845V135.397V135.95V136.503V137.056V137.61V138.163V138.717V139.271V139.825V140.379V140.934V141.488V142.043V142.597V143.152V143.707V144.262V144.817V145.372V145.927V146.483V147.038V147.593V148.149V148.704V149.26V149.815V150.371V150.927V151.482V152.038V152.593V153.149V153.704V154.26V154.815V155.371V155.926V156.482V157.037V157.592V158.147V158.702V159.257V159.812V160.367V160.922V161.476V162.031V162.585V163.139V163.693V164.247V164.801V165.355V165.908V166.461V167.014V167.567V168.12V168.673V169.225V169.777V170.329V170.881V171.432V171.983V172.534V173.085V173.635V174.185V174.735V175.285V175.834V176.383V176.932V177.48V178.028V178.576V179.124V179.671V180.218V180.764V181.31V181.856V182.401V182.946V183.491V184.035V184.579V185.122V185.665V186.208V186.75V187.292V187.834V188.374V188.915V189.455V189.995V190.534V191.072V191.61V192.148V192.685V193.222V193.758V194.294V194.829V195.364V195.898V196.431V196.964V197.497V198.029V198.56V199.091V199.621V200.151V200.68V201.208V201.736V202.263V202.79V203.316V203.841V204.366V204.89V205.413V205.936V206.458V206.979V207.372C361.561 230.91 334.572 248.663 300.544 262.035C266.477 275.421 225.441 284.383 184.615 290.38C103.566 302.286 23.4335 302.497 0.5 302.5Z" fill="#0082FA" stroke="#FAFAFA"/>
</mask>
<g mask="url(#mask0)">
<mask id="mask1" mask-type="alpha" maskUnits="userSpaceOnUse" x="0" y="-37" width="375" height="377">
<rect y="-37" width="375" height="377" fill="#C4C4C4"/>
</mask>
<g mask="url(#mask1)">
<path d="M562 -193H-188V543H562V-193Z" fill="url(#paint0_radial)"/>
<g opacity="0.3">
<path d="M74.3663 24.8906C74.3663 24.8906 75.2697 27.1081 75.8446 27.6008C76.4194 28.1757 78.5548 29.0791 78.5548 29.0791C78.5548 29.0791 76.3373 29.9825 75.8446 30.5574C75.2697 31.1323 74.3663 33.2676 74.3663 33.2676C74.3663 33.2676 73.4628 31.0502 72.888 30.5574C72.3131 29.9825 70.1777 29.0791 70.1777 29.0791C70.1777 29.0791 72.3952 28.1757 72.888 27.6008C73.3807 27.0259 74.3663 24.8906 74.3663 24.8906Z" fill="white"/>
<path d="M89.3949 61.1904C89.3949 61.1904 90.9553 64.804 91.8588 65.7075C92.7622 66.6109 96.3758 68.1713 96.3758 68.1713C96.3758 68.1713 92.7622 69.7317 91.8588 70.6351C90.9553 71.5385 89.3949 75.1521 89.3949 75.1521C89.3949 75.1521 87.8345 71.5385 86.9311 70.6351C86.0277 69.7317 82.4141 68.1713 82.4141 68.1713C82.4141 68.1713 86.0277 66.6109 86.9311 65.7075C87.8345 64.8862 89.3949 61.1904 89.3949 61.1904Z" fill="white"/>
<path d="M300.71 252.877C300.71 252.877 301.613 255.094 302.188 255.587C302.763 256.162 304.899 257.065 304.899 257.065C304.899 257.065 302.681 257.969 302.188 258.544C301.613 259.119 300.71 261.254 300.71 261.254C300.71 261.254 299.807 259.037 299.232 258.544C298.657 257.969 296.521 257.065 296.521 257.065C296.521 257.065 298.739 256.162 299.232 255.587C299.724 255.094 300.71 252.877 300.71 252.877Z" fill="white"/>
<path d="M312.454 153.667C312.454 153.667 313.358 155.884 313.932 156.377C314.507 156.952 316.643 157.856 316.643 157.856C316.643 157.856 314.425 158.759 313.932 159.334C313.358 159.909 312.454 162.044 312.454 162.044C312.454 162.044 311.551 159.827 310.976 159.334C310.401 158.759 308.266 157.856 308.266 157.856C308.266 157.856 310.483 156.952 310.976 156.377C311.469 155.884 312.454 153.667 312.454 153.667Z" fill="white"/>
<path opacity="0.5" d="M274.839 181.919C274.839 181.919 276.4 185.533 277.303 186.436C278.206 187.339 281.82 188.9 281.82 188.9C281.82 188.9 278.206 190.46 277.303 191.364C276.4 192.267 274.839 195.881 274.839 195.881C274.839 195.881 273.279 192.267 272.375 191.364C271.472 190.46 267.858 188.9 267.858 188.9C267.858 188.9 271.472 187.339 272.375 186.436C273.279 185.533 274.839 181.919 274.839 181.919Z" fill="white"/>
<path d="M135.469 242.447C135.469 242.447 136.126 244.008 136.537 244.418C136.948 244.829 138.508 245.486 138.508 245.486C138.508 245.486 136.948 246.143 136.537 246.554C136.126 246.964 135.469 248.525 135.469 248.525C135.469 248.525 134.812 246.964 134.402 246.554C133.991 246.143 132.431 245.486 132.431 245.486C132.431 245.486 133.991 244.829 134.402 244.418C134.812 244.09 135.469 242.447 135.469 242.447Z" fill="white"/>
<path d="M144.01 170.503C144.01 170.503 144.667 172.063 145.078 172.474C145.489 172.885 147.049 173.542 147.049 173.542C147.049 173.542 145.489 174.199 145.078 174.609C144.667 175.02 144.01 176.58 144.01 176.58C144.01 176.58 143.353 175.02 142.943 174.609C142.532 174.199 140.972 173.542 140.972 173.542C140.972 173.542 142.532 172.885 142.943 172.474C143.353 172.063 144.01 170.503 144.01 170.503Z" fill="white"/>
<path d="M236.814 231.441C236.814 231.441 237.471 233.002 237.882 233.412C238.292 233.823 239.853 234.48 239.853 234.48C239.853 234.48 238.292 235.137 237.882 235.548C237.471 235.958 236.814 237.519 236.814 237.519C236.814 237.519 236.157 235.958 235.746 235.548C235.336 235.137 233.775 234.48 233.775 234.48C233.775 234.48 235.336 233.823 235.746 233.412C236.157 233.002 236.814 231.441 236.814 231.441Z" fill="white"/>
<path d="M243.959 197.112C243.959 197.112 245.109 199.74 245.766 200.397C246.423 201.054 249.051 202.204 249.051 202.204C249.051 202.204 246.423 203.354 245.766 204.011C245.109 204.668 243.959 207.296 243.959 207.296C243.959 207.296 242.809 204.668 242.152 204.011C241.495 203.354 238.867 202.204 238.867 202.204C238.867 202.204 241.495 201.054 242.152 200.397C242.809 199.74 243.959 197.112 243.959 197.112Z" fill="white"/>
<path opacity="0.5" d="M247.737 257.805C247.737 257.805 248.887 260.433 249.544 261.09C250.201 261.747 252.829 262.897 252.829 262.897C252.829 262.897 250.201 264.046 249.544 264.703C248.887 265.36 247.737 267.989 247.737 267.989C247.737 267.989 246.588 265.36 245.931 264.703C245.274 264.046 242.646 262.897 242.646 262.897C242.646 262.897 245.274 261.747 245.931 261.09C246.588 260.433 247.737 257.805 247.737 257.805Z" fill="white"/>
<path d="M116.744 190.952C116.744 190.952 117.894 193.58 118.551 194.237C119.208 194.894 121.836 196.044 121.836 196.044C121.836 196.044 119.208 197.194 118.551 197.851C117.894 198.508 116.744 201.136 116.744 201.136C116.744 201.136 115.594 198.508 114.937 197.851C114.28 197.194 111.652 196.044 111.652 196.044C111.652 196.044 114.28 194.894 114.937 194.237C115.594 193.58 116.744 190.952 116.744 190.952Z" fill="white"/>
<path d="M241.824 17.7452C241.824 17.7452 242.481 16.1027 242.481 15.6099C242.481 15.035 241.824 13.4746 241.824 13.4746C241.824 13.4746 243.467 14.1316 243.96 14.1316C244.534 14.1316 246.095 13.4746 246.095 13.4746C246.095 13.4746 245.438 15.1172 245.438 15.6099C245.438 16.1848 246.095 17.7452 246.095 17.7452C246.095 17.7452 244.452 17.0882 243.96 17.0882C243.467 17.1704 241.824 17.7452 241.824 17.7452Z" fill="white"/>
<path d="M184.91 62.6691C184.91 62.6691 185.567 61.0265 185.567 60.5338C185.567 59.9589 184.91 58.3984 184.91 58.3984C184.91 58.3984 186.553 59.0555 187.045 59.0555C187.62 59.0555 189.181 58.3984 189.181 58.3984C189.181 58.3984 188.524 60.041 188.524 60.5338C188.524 61.1087 189.181 62.6691 189.181 62.6691C189.181 62.6691 187.538 62.0121 187.045 62.0121C186.553 62.0121 184.91 62.6691 184.91 62.6691Z" fill="white"/>
<path opacity="0.5" d="M218.746 67.4323C218.746 67.4323 219.814 64.7221 219.814 63.8187C219.814 62.9153 218.746 60.2051 218.746 60.2051C218.746 60.2051 221.456 61.2727 222.36 61.2727C223.263 61.2727 225.973 60.2051 225.973 60.2051C225.973 60.2051 224.906 62.9153 224.906 63.8187C224.906 64.7221 225.973 67.4323 225.973 67.4323C225.973 67.4323 223.263 66.3647 222.36 66.3647C221.374 66.3647 218.746 67.4323 218.746 67.4323Z" fill="white"/>
<path opacity="0.5" d="M73.1338 242.611C73.1338 242.611 74.0372 240.394 74.0372 239.655C74.0372 238.916 73.1338 236.698 73.1338 236.698C73.1338 236.698 75.3512 237.602 76.0904 237.602C76.8295 237.602 79.047 236.698 79.047 236.698C79.047 236.698 78.1436 238.916 78.1436 239.655C78.1436 240.394 79.047 242.611 79.047 242.611C79.047 242.611 76.8295 241.708 76.0904 241.708C75.3512 241.708 73.1338 242.611 73.1338 242.611Z" fill="white"/>
<path d="M-5.29785 304.371C-5.29785 304.371 -4.39444 302.154 -4.39444 301.415C-4.39444 300.675 -5.29785 298.458 -5.29785 298.458C-5.29785 298.458 -3.0804 299.361 -2.34125 299.361C-1.6021 299.361 0.615342 298.458 0.615342 298.458C0.615342 298.458 -0.288055 300.675 -0.288055 301.415C-0.288055 302.154 0.615342 304.371 0.615342 304.371C0.615342 304.371 -1.6021 303.468 -2.34125 303.468C-3.0804 303.468 -5.29785 304.371 -5.29785 304.371Z" fill="white"/>
<path d="M41.1865 311.023C41.1865 311.023 42.6648 307.328 42.6648 306.014C42.6648 304.7 41.1865 301.004 41.1865 301.004C41.1865 301.004 44.8823 302.482 46.1963 302.482C47.5104 302.482 51.2061 301.004 51.2061 301.004C51.2061 301.004 49.7278 304.7 49.7278 306.014C49.7278 307.328 51.2061 311.023 51.2061 311.023C51.2061 311.023 47.5104 309.545 46.1963 309.545C44.8823 309.627 41.1865 311.023 41.1865 311.023Z" fill="white"/>
<path opacity="0.5" d="M67.8778 56.0163C69.1932 56.0163 70.2595 54.95 70.2595 53.6346C70.2595 52.3193 69.1932 51.2529 67.8778 51.2529C66.5624 51.2529 65.4961 52.3193 65.4961 53.6346C65.4961 54.95 66.5624 56.0163 67.8778 56.0163Z" fill="url(#paint1_radial)"/>
<path opacity="0.5" d="M62.0466 3.94778C62.0466 3.94778 62.5394 2.71587 62.8679 2.46949C63.1964 2.14098 64.3462 1.64821 64.3462 1.64821C64.3462 1.64821 63.1143 1.15545 62.8679 0.826934C62.5394 0.498423 62.0466 -0.651367 62.0466 -0.651367C62.0466 -0.651367 61.5539 0.580551 61.2254 0.826934C60.8969 1.15545 59.7471 1.64821 59.7471 1.64821C59.7471 1.64821 60.979 2.14098 61.2254 2.46949C61.5539 2.71587 62.0466 3.94778 62.0466 3.94778Z" fill="url(#paint2_radial)"/>
<path opacity="0.5" d="M281.41 288.602C281.41 288.602 281.903 287.37 282.231 287.124C282.56 286.795 283.71 286.302 283.71 286.302C283.71 286.302 282.478 285.81 282.231 285.481C281.903 285.153 281.41 284.003 281.41 284.003C281.41 284.003 280.917 285.235 280.589 285.481C280.26 285.81 279.11 286.302 279.11 286.302C279.11 286.302 280.342 286.795 280.589 287.124C280.917 287.37 281.41 288.602 281.41 288.602Z" fill="url(#paint3_radial)"/>
<path opacity="0.5" d="M308.677 182.33C308.677 182.33 309.169 181.098 309.498 180.851C309.826 180.523 310.976 180.03 310.976 180.03C310.976 180.03 309.744 179.537 309.498 179.209C309.169 178.88 308.677 177.73 308.677 177.73C308.677 177.73 308.184 178.962 307.855 179.209C307.527 179.537 306.377 180.03 306.377 180.03C306.377 180.03 307.609 180.523 307.855 180.851C308.102 181.18 308.677 182.33 308.677 182.33Z" fill="url(#paint4_radial)"/>
<path d="M294.714 217.234C294.714 217.644 294.386 218.055 293.893 218.055C293.482 218.055 293.072 217.726 293.072 217.234C293.072 216.741 293.4 216.412 293.893 216.412C294.304 216.495 294.714 216.823 294.714 217.234ZM300.956 202.861C300.052 202.861 299.395 203.6 299.395 204.422C299.395 205.325 300.135 205.982 300.956 205.982C301.859 205.982 302.516 205.243 302.516 204.422C302.516 203.6 301.859 202.861 300.956 202.861ZM304.077 221.669C302.352 221.669 300.956 223.065 300.956 224.789C300.956 226.514 302.352 227.91 304.077 227.91C305.801 227.91 307.198 226.514 307.198 224.789C307.198 223.065 305.801 221.669 304.077 221.669ZM276.892 225.364C275.989 225.364 275.332 226.103 275.332 226.925C275.332 227.828 276.071 228.485 276.892 228.485C277.796 228.485 278.453 227.746 278.453 226.925C278.453 226.021 277.796 225.364 276.892 225.364Z" fill="url(#paint5_radial)"/>
<path opacity="0.5" d="M232.052 254.027C233.004 254.027 233.777 253.254 233.777 252.302C233.777 251.349 233.004 250.577 232.052 250.577C231.099 250.577 230.327 251.349 230.327 252.302C230.327 253.254 231.099 254.027 232.052 254.027Z" fill="url(#paint6_radial)"/>
<path opacity="0.5" d="M204.21 160.236C204.21 160.236 204.621 159.333 204.785 159.169C205.031 158.922 205.852 158.594 205.852 158.594C205.852 158.594 204.949 158.183 204.785 158.019C204.538 157.772 204.21 156.951 204.21 156.951C204.21 156.951 203.799 157.855 203.635 158.019C203.389 158.265 202.567 158.594 202.567 158.594C202.567 158.594 203.471 159.004 203.635 159.169C203.881 159.333 204.21 160.236 204.21 160.236Z" fill="url(#paint7_radial)"/>
<path opacity="0.5" d="M251.352 193.006C251.352 193.006 251.762 192.102 251.926 191.938C252.173 191.692 252.994 191.363 252.994 191.363C252.994 191.363 252.091 190.953 251.926 190.788C251.68 190.542 251.352 189.721 251.352 189.721C251.352 189.721 250.941 190.624 250.777 190.788C250.53 191.035 249.709 191.363 249.709 191.363C249.709 191.363 250.612 191.774 250.777 191.938C250.941 192.102 251.352 193.006 251.352 193.006Z" fill="url(#paint8_radial)"/>
<path opacity="0.5" d="M227.862 216.248C227.862 216.248 228.273 215.345 228.437 215.18C228.684 214.934 229.505 214.605 229.505 214.605C229.505 214.605 228.601 214.195 228.437 214.031C228.191 213.784 227.862 212.963 227.862 212.963C227.862 212.963 227.452 213.866 227.287 214.031C227.041 214.277 226.22 214.605 226.22 214.605C226.22 214.605 227.123 215.016 227.287 215.18C227.452 215.345 227.862 216.248 227.862 216.248Z" fill="url(#paint9_radial)"/>
<path opacity="0.5" d="M121.508 268.399C121.508 268.399 121.918 267.496 122.083 267.332C122.329 267.085 123.15 266.757 123.15 266.757C123.15 266.757 122.247 266.346 122.083 266.182C121.836 265.936 121.508 265.114 121.508 265.114C121.508 265.114 121.097 266.018 120.933 266.182C120.687 266.428 119.865 266.757 119.865 266.757C119.865 266.757 120.769 267.167 120.933 267.332C121.097 267.496 121.508 268.399 121.508 268.399Z" fill="url(#paint10_radial)"/>
<path opacity="0.5" d="M141.301 191.281C141.301 191.281 141.711 190.378 141.876 190.214C142.122 189.967 142.943 189.639 142.943 189.639C142.943 189.639 142.04 189.228 141.876 189.064C141.629 188.817 141.301 187.996 141.301 187.996C141.301 187.996 140.89 188.899 140.726 189.064C140.479 189.31 139.658 189.639 139.658 189.639C139.658 189.639 140.562 190.049 140.726 190.214C140.89 190.46 141.301 191.281 141.301 191.281Z" fill="url(#paint11_radial)"/>
<path d="M131.116 216.576C131.116 216.904 130.87 217.151 130.541 217.151C130.213 217.151 129.966 216.904 129.966 216.576C129.966 216.247 130.213 216.001 130.541 216.001C130.87 216.001 131.116 216.329 131.116 216.576ZM135.715 206.146C135.058 206.146 134.565 206.638 134.565 207.295C134.565 207.952 135.058 208.445 135.715 208.445C136.372 208.445 136.865 207.952 136.865 207.295C136.865 206.72 136.29 206.146 135.715 206.146ZM138.015 219.861C136.783 219.861 135.715 220.846 135.715 222.16C135.715 223.392 136.701 224.46 138.015 224.46C139.247 224.46 140.314 223.474 140.314 222.16C140.232 220.846 139.247 219.861 138.015 219.861ZM118.222 222.489C117.565 222.489 117.072 222.982 117.072 223.639C117.072 224.296 117.565 224.789 118.222 224.789C118.879 224.789 119.372 224.296 119.372 223.639C119.372 222.982 118.879 222.489 118.222 222.489Z" fill="url(#paint12_radial)"/>
<path d="M230.901 175.841C230.901 175.512 231.148 175.266 231.394 175.266C231.722 175.266 231.969 175.512 231.969 175.759C231.969 176.005 231.722 176.334 231.476 176.334C231.23 176.334 230.901 176.087 230.901 175.841ZM227.205 186.6C227.862 186.518 228.273 186.025 228.273 185.368C228.191 184.711 227.698 184.3 227.041 184.3C226.384 184.382 225.974 184.875 225.974 185.532C226.056 186.189 226.631 186.682 227.205 186.6ZM223.838 173.213C225.07 173.131 226.056 171.981 225.891 170.749C225.727 169.517 224.659 168.532 223.428 168.696C222.196 168.778 221.21 169.928 221.374 171.16C221.457 172.392 222.524 173.295 223.838 173.213ZM243.22 168.86C243.877 168.778 244.288 168.285 244.288 167.628C244.206 166.971 243.713 166.561 243.056 166.561C242.399 166.643 241.988 167.135 241.988 167.792C242.071 168.449 242.645 168.942 243.22 168.86Z" fill="url(#paint13_radial)"/>
<path opacity="0.5" d="M135.141 27.2715C135.141 27.2715 134.237 27.6 133.909 27.6C133.58 27.6 132.677 27.2715 132.677 27.2715C132.677 27.2715 133.005 28.1749 133.005 28.5034C133.005 28.8319 132.677 29.7353 132.677 29.7353C132.677 29.7353 133.58 29.4068 133.909 29.4068C134.237 29.4068 135.141 29.7353 135.141 29.7353C135.141 29.7353 134.812 28.8319 134.812 28.5034C134.73 28.1749 135.141 27.2715 135.141 27.2715Z" fill="url(#paint14_radial)"/>
<path opacity="0.5" d="M270.076 9.36816C270.076 9.36816 269.173 9.69668 268.844 9.69668C268.516 9.69668 267.612 9.36816 267.612 9.36816C267.612 9.36816 267.941 10.2716 267.941 10.6001C267.941 10.9286 267.612 11.832 267.612 11.832C267.612 11.832 268.516 11.5035 268.844 11.5035C269.173 11.5035 270.076 11.832 270.076 11.832C270.076 11.832 269.748 10.9286 269.748 10.6001C269.748 10.2716 270.076 9.36816 270.076 9.36816Z" fill="url(#paint15_radial)"/>
<path opacity="0.5" d="M201.582 49.8574C201.582 49.8574 200.679 50.1859 200.35 50.1859C200.022 50.1859 199.118 49.8574 199.118 49.8574C199.118 49.8574 199.447 50.7608 199.447 51.0893C199.447 51.4178 199.118 52.3213 199.118 52.3213C199.118 52.3213 200.022 51.9927 200.35 51.9927C200.679 51.9927 201.582 52.3213 201.582 52.3213C201.582 52.3213 201.253 51.4178 201.253 51.0893C201.253 50.7608 201.582 49.8574 201.582 49.8574Z" fill="url(#paint16_radial)"/>
<path d="M226.631 39.0988C226.877 38.8524 227.206 38.8524 227.452 39.0988C227.699 39.3452 227.699 39.6737 227.452 39.9201C227.206 40.1665 226.877 40.1665 226.631 39.9201C226.467 39.6737 226.467 39.3452 226.631 39.0988ZM216.036 43.2873C216.447 43.698 217.186 43.698 217.679 43.2873C218.09 42.8767 218.09 42.1375 217.679 41.6448C217.268 41.152 216.529 41.2341 216.036 41.6448C215.626 42.1375 215.626 42.8767 216.036 43.2873ZM224.085 32.0358C224.988 32.9392 226.385 32.9392 227.288 32.0358C228.191 31.1324 228.191 29.7362 227.288 28.8328C226.385 27.9294 224.988 27.9294 224.085 28.8328C223.182 29.6541 223.182 31.1324 224.085 32.0358ZM239.936 44.1086C240.346 44.5192 241.085 44.5192 241.578 44.1086C241.989 43.698 241.989 42.9588 241.578 42.466C241.168 42.0554 240.428 42.0554 239.936 42.466C239.525 42.9588 239.525 43.6158 239.936 44.1086Z" fill="url(#paint17_radial)"/>
<path d="M127.255 -2.54067C127.091 -2.29428 126.681 -2.29428 126.434 -2.45853C126.188 -2.62279 126.188 -3.03343 126.352 -3.27981C126.516 -3.5262 126.927 -3.5262 127.173 -3.36194C127.42 -3.19769 127.502 -2.78705 127.255 -2.54067ZM137.439 -7.63258C136.947 -8.04322 136.207 -7.9611 135.797 -7.46833C135.386 -6.97556 135.468 -6.23642 135.961 -5.82578C136.454 -5.41514 137.193 -5.49726 137.604 -5.99003C138.014 -6.4828 137.932 -7.22195 137.439 -7.63258ZM130.376 4.27594C129.391 3.45466 127.995 3.61892 127.173 4.52232C126.352 5.50785 126.516 6.90402 127.42 7.7253C128.405 8.54658 129.801 8.38232 130.623 7.47892C131.526 6.57551 131.362 5.09721 130.376 4.27594ZM113.622 -6.40067C113.13 -6.81131 112.39 -6.72918 111.98 -6.23642C111.569 -5.74365 111.651 -5.0045 112.144 -4.59386C112.637 -4.18322 113.376 -4.26535 113.787 -4.75811C114.115 -5.25088 114.115 -5.99003 113.622 -6.40067Z" fill="url(#paint18_radial)"/>
<path opacity="0.5" d="M316.725 60.2051C316.725 60.2051 315.493 60.6978 315.082 60.6978C314.671 60.6978 313.439 60.2051 313.439 60.2051C313.439 60.2051 313.932 61.437 313.932 61.8476C313.932 62.2583 313.439 63.4902 313.439 63.4902C313.439 63.4902 314.671 62.9974 315.082 62.9974C315.493 62.9974 316.725 63.4902 316.725 63.4902C316.725 63.4902 316.232 62.2583 316.232 61.8476C316.232 61.3549 316.725 60.2051 316.725 60.2051Z" fill="url(#paint19_radial)"/>
<path d="M305.884 19.0587C305.637 19.3872 305.145 19.4693 304.816 19.1408C304.488 18.8944 304.405 18.4016 304.734 18.0731C304.98 17.7446 305.473 17.6625 305.802 17.991C306.13 18.1553 306.212 18.648 305.884 19.0587ZM320.01 12.0778C319.353 11.5029 318.367 11.585 317.792 12.2421C317.217 12.8991 317.299 13.8846 317.957 14.4595C318.614 15.0344 319.599 14.9523 320.174 14.2953C320.749 13.6382 320.667 12.6527 320.01 12.0778ZM310.237 28.5034C308.923 27.3536 306.951 27.5178 305.802 28.914C304.652 30.228 304.816 32.1991 306.212 33.3489C307.608 34.4987 309.497 34.3344 310.647 32.9382C311.715 31.6242 311.551 29.571 310.237 28.5034ZM287.077 13.7204C286.419 13.1455 285.434 13.2276 284.859 13.8846C284.284 14.5416 284.366 15.5272 285.023 16.1021C285.68 16.677 286.666 16.5948 287.241 15.9378C287.816 15.2808 287.734 14.2953 287.077 13.7204Z" fill="url(#paint20_radial)"/>
<path opacity="0.5" d="M111.98 230.948C111.98 230.948 110.749 231.441 110.338 231.441C109.927 231.441 108.695 230.948 108.695 230.948C108.695 230.948 109.188 232.18 109.188 232.591C109.188 233.001 108.695 234.233 108.695 234.233C108.695 234.233 109.927 233.741 110.338 233.741C110.749 233.741 111.98 234.233 111.98 234.233C111.98 234.233 111.488 233.001 111.488 232.591C111.488 232.18 111.98 230.948 111.98 230.948Z" fill="url(#paint21_radial)"/>
<path opacity="0.5" d="M17.6162 286.796C17.6162 286.796 16.3842 287.289 15.9736 287.289C15.563 287.289 14.3311 286.796 14.3311 286.796C14.3311 286.796 14.8238 288.028 14.8238 288.438C14.8238 288.849 14.3311 290.081 14.3311 290.081C14.3311 290.081 15.563 289.588 15.9736 289.588C16.3842 289.588 17.6162 290.081 17.6162 290.081C17.6162 290.081 17.1234 288.849 17.1234 288.438C17.1234 288.028 17.6162 286.796 17.6162 286.796Z" fill="url(#paint22_radial)"/>
<path d="M52.1085 272.013C52.437 271.684 52.9298 271.684 53.2583 272.013C53.5868 272.341 53.5868 272.834 53.2583 273.163C52.9298 273.491 52.437 273.491 52.1085 273.163C51.8621 272.834 51.8621 272.341 52.1085 272.013ZM37.4898 277.762C38.0647 278.337 39.1323 278.337 39.7072 277.762C40.2821 277.187 40.2821 276.119 39.7072 275.544C39.1323 274.97 38.0647 274.97 37.4898 275.544C36.9149 276.119 36.9149 277.105 37.4898 277.762ZM48.6591 262.158C49.891 263.39 51.8621 263.39 53.094 262.158C54.3259 260.926 54.3259 258.955 53.094 257.723C51.8621 256.491 49.891 256.491 48.6591 257.723C47.4272 258.955 47.4272 261.008 48.6591 262.158ZM70.423 278.83C70.9979 279.404 72.0655 279.404 72.6404 278.83C73.2153 278.255 73.2153 277.187 72.6404 276.612C72.0655 276.037 70.9979 276.037 70.423 276.612C69.8481 277.269 69.8481 278.255 70.423 278.83Z" fill="url(#paint23_radial)"/>
<path opacity="0.5" d="M312.864 189.803C314.18 189.803 315.246 188.737 315.246 187.422C315.246 186.106 314.18 185.04 312.864 185.04C311.549 185.04 310.482 186.106 310.482 187.422C310.482 188.737 311.549 189.803 312.864 189.803Z" fill="url(#paint24_radial)"/>
<path opacity="0.5" d="M268.024 260.761C268.024 260.761 267.203 261.828 266.874 262.075C266.545 262.321 265.231 262.568 265.231 262.568C265.231 262.568 266.299 263.389 266.545 263.717C266.792 264.046 267.038 265.36 267.038 265.36C267.038 265.36 267.86 264.292 268.188 264.046C268.517 263.799 269.831 263.553 269.831 263.553C269.831 263.553 268.763 262.732 268.517 262.403C268.27 262.075 268.024 260.761 268.024 260.761Z" fill="url(#paint25_radial)"/>
<path opacity="0.5" d="M306.952 237.108C306.952 237.108 306.13 238.176 305.802 238.422C305.473 238.669 304.159 238.915 304.159 238.915C304.159 238.915 305.227 239.736 305.473 240.065C305.72 240.394 305.966 241.708 305.966 241.708C305.966 241.708 306.787 240.64 307.116 240.394C307.444 240.147 308.758 239.901 308.758 239.901C308.758 239.901 307.691 239.079 307.444 238.751C307.116 238.422 306.952 237.108 306.952 237.108Z" fill="url(#paint26_radial)"/>
<path d="M289.87 290.327C289.788 290.738 289.377 291.066 288.966 290.984C288.556 290.902 288.227 290.491 288.309 290.081C288.392 289.67 288.802 289.342 289.213 289.424C289.623 289.506 289.952 289.916 289.87 290.327ZM298.247 277.022C297.426 276.858 296.604 277.515 296.44 278.336C296.276 279.158 296.933 279.979 297.754 280.143C298.575 280.308 299.397 279.65 299.561 278.829C299.725 277.926 299.068 277.187 298.247 277.022ZM298.575 296.158C296.851 295.912 295.29 297.062 294.962 298.786C294.715 300.511 295.865 302.071 297.59 302.4C299.315 302.646 300.875 301.496 301.204 299.772C301.45 297.965 300.218 296.405 298.575 296.158ZM271.063 295.665C270.241 295.501 269.42 296.158 269.256 296.979C269.092 297.801 269.749 298.622 270.57 298.786C271.391 298.951 272.212 298.293 272.377 297.472C272.541 296.651 271.966 295.83 271.063 295.665Z" fill="url(#paint27_radial)"/>
<path opacity="0.5" d="M14.2494 27.6826C14.2494 27.6826 13.4281 28.7503 13.0996 28.9967C12.7711 29.243 11.457 29.4894 11.457 29.4894C11.457 29.4894 12.5247 30.3107 12.7711 30.6392C13.0175 30.9677 13.2639 32.2818 13.2639 32.2818C13.2639 32.2818 14.0851 31.2141 14.4136 30.9677C14.7421 30.7213 16.0562 30.475 16.0562 30.475C16.0562 30.475 14.9885 29.6537 14.7421 29.3252C14.4136 28.9967 14.2494 27.6826 14.2494 27.6826Z" fill="url(#paint28_radial)"/>
<path opacity="0.5" d="M108.531 6.24707C108.531 6.24707 107.709 7.31473 107.381 7.56111C107.052 7.8075 105.738 8.05388 105.738 8.05388C105.738 8.05388 106.806 8.87516 107.052 9.20367C107.299 9.53218 107.545 10.8462 107.545 10.8462C107.545 10.8462 108.366 9.77856 108.695 9.53218C109.023 9.2858 110.337 9.03941 110.337 9.03941C110.337 9.03941 109.27 8.21814 109.023 7.88962C108.777 7.47899 108.531 6.24707 108.531 6.24707Z" fill="url(#paint29_radial)"/>
<path opacity="0.5" d="M204.949 51.9932C204.949 51.9932 204.374 52.7323 204.127 52.8966C203.881 53.0608 202.896 53.2251 202.896 53.2251C202.896 53.2251 203.635 53.8 203.799 54.0464C203.963 54.2927 204.127 55.2783 204.127 55.2783C204.127 55.2783 204.702 54.5391 204.949 54.3749C205.195 54.2106 206.181 54.0464 206.181 54.0464C206.181 54.0464 205.441 53.4715 205.277 53.2251C205.113 52.9787 204.949 51.9932 204.949 51.9932Z" fill="url(#paint30_radial)"/>
<path opacity="0.5" d="M166.841 9.2041C166.841 9.2041 166.266 9.94325 166.02 10.1075C165.774 10.2718 164.788 10.436 164.788 10.436C164.788 10.436 165.527 11.0109 165.691 11.2573C165.856 11.5037 166.02 12.4892 166.02 12.4892C166.02 12.4892 166.595 11.7501 166.841 11.5858C167.088 11.4216 168.073 11.2573 168.073 11.2573C168.073 11.2573 167.334 10.6824 167.17 10.436C167.006 10.1896 166.841 9.2041 166.841 9.2041Z" fill="url(#paint31_radial)"/>
<path opacity="0.5" d="M273.444 36.4707C273.444 36.4707 272.869 37.2099 272.623 37.3741C272.376 37.5384 271.391 37.7026 271.391 37.7026C271.391 37.7026 272.13 38.2775 272.294 38.5239C272.458 38.7703 272.623 39.7558 272.623 39.7558C272.623 39.7558 273.197 39.0167 273.444 38.8524C273.69 38.6882 274.676 38.5239 274.676 38.5239C274.676 38.5239 273.937 37.949 273.772 37.7026C273.608 37.3741 273.444 36.4707 273.444 36.4707Z" fill="url(#paint32_radial)"/>
<path d="M289.212 14.2144C289.294 13.8859 289.622 13.7216 289.869 13.8037C290.197 13.8859 290.361 14.2144 290.279 14.4608C290.197 14.7893 289.869 14.9535 289.622 14.8714C289.294 14.7893 289.129 14.4608 289.212 14.2144ZM282.313 23.2484C282.888 23.4127 283.545 23.002 283.709 22.4272C283.873 21.8523 283.463 21.1952 282.888 21.031C282.313 20.8667 281.656 21.2774 281.492 21.8523C281.327 22.5093 281.738 23.1663 282.313 23.2484ZM283.298 9.45097C284.53 9.77948 285.762 8.9582 286.009 7.72628C286.255 6.49437 285.516 5.26246 284.284 5.01607C283.052 4.68756 281.82 5.50884 281.574 6.74075C281.327 7.97267 282.066 9.20459 283.298 9.45097ZM303.091 11.5042C303.666 11.6684 304.323 11.2578 304.487 10.6829C304.652 10.108 304.241 9.45097 303.666 9.28671C303.091 9.12246 302.434 9.5331 302.27 10.108C302.106 10.6829 302.516 11.3399 303.091 11.5042Z" fill="url(#paint33_radial)"/>
<path d="M182.693 30.6389C182.611 30.9674 182.364 31.1317 182.036 31.1317C181.707 31.1317 181.543 30.8031 181.543 30.4746C181.625 30.1461 181.872 29.9819 182.2 29.9819C182.529 30.064 182.693 30.3925 182.693 30.6389ZM188.77 21.0299C188.113 20.9478 187.539 21.3585 187.456 22.0155C187.374 22.6725 187.785 23.2474 188.442 23.3295C189.099 23.4117 189.674 23.001 189.756 22.344C189.756 21.687 189.345 21.1121 188.77 21.0299ZM188.935 34.9095C187.703 34.7453 186.553 35.5666 186.307 36.7985C186.142 38.0304 186.964 39.1802 188.196 39.4266C189.427 39.5908 190.577 38.7695 190.824 37.5376C191.07 36.2236 190.167 35.0738 188.935 34.9095ZM169.06 34.581C168.403 34.4989 167.828 34.9095 167.746 35.5666C167.664 36.2236 168.074 36.7985 168.731 36.8806C169.388 36.9627 169.963 36.5521 170.045 35.8951C170.127 35.238 169.635 34.6631 169.06 34.581Z" fill="url(#paint34_radial)"/>
<path opacity="0.5" d="M177.436 271.027C178.388 271.027 179.16 270.255 179.16 269.303C179.16 268.35 178.388 267.578 177.436 267.578C176.483 267.578 175.711 268.35 175.711 269.303C175.711 270.255 176.483 271.027 177.436 271.027Z" fill="url(#paint35_radial)"/>
<path opacity="0.5" d="M241.332 197.358C241.332 197.358 242.318 197.194 242.564 197.276C242.892 197.358 243.632 197.933 243.632 197.933C243.632 197.933 243.467 196.948 243.549 196.701C243.632 196.373 244.207 195.633 244.207 195.633C244.207 195.633 243.221 195.798 242.975 195.716C242.646 195.634 241.907 195.059 241.907 195.059C241.907 195.059 242.071 196.044 241.989 196.291C241.907 196.537 241.332 197.358 241.332 197.358Z" fill="url(#paint36_radial)"/>
<path opacity="0.5" d="M238.047 254.684C238.047 254.684 239.032 254.52 239.279 254.602C239.607 254.684 240.346 255.259 240.346 255.259C240.346 255.259 240.182 254.274 240.264 254.027C240.346 253.699 240.921 252.96 240.921 252.96C240.921 252.96 239.936 253.124 239.689 253.042C239.361 252.96 238.622 252.385 238.622 252.385C238.622 252.385 238.786 253.37 238.704 253.617C238.54 253.863 238.047 254.684 238.047 254.684Z" fill="url(#paint37_radial)"/>
<path opacity="0.5" d="M205.935 246.8C205.935 246.8 206.92 246.635 207.166 246.717C207.495 246.8 208.234 247.374 208.234 247.374C208.234 247.374 208.07 246.389 208.152 246.143C208.234 245.814 208.809 245.075 208.809 245.075C208.809 245.075 207.824 245.239 207.577 245.157C207.249 245.075 206.509 244.5 206.509 244.5C206.509 244.5 206.674 245.486 206.592 245.732C206.509 246.06 205.935 246.8 205.935 246.8Z" fill="url(#paint38_radial)"/>
<path opacity="0.5" d="M105.903 183.479C105.903 183.479 106.889 183.315 107.135 183.397C107.464 183.479 108.203 184.054 108.203 184.054C108.203 184.054 108.039 183.069 108.121 182.822C108.203 182.494 108.778 181.755 108.778 181.755C108.778 181.755 107.792 181.919 107.546 181.837C107.217 181.755 106.478 181.18 106.478 181.18C106.478 181.18 106.642 182.165 106.56 182.412C106.396 182.658 105.903 183.479 105.903 183.479Z" fill="url(#paint39_radial)"/>
<path opacity="0.5" d="M181.871 159.99C181.871 159.99 182.857 159.826 183.103 159.908C183.432 159.99 184.171 160.565 184.171 160.565C184.171 160.565 184.006 159.579 184.089 159.333C184.171 159.004 184.746 158.265 184.746 158.265C184.746 158.265 183.76 158.43 183.514 158.347C183.185 158.265 182.446 157.69 182.446 157.69C182.446 157.69 182.61 158.676 182.528 158.922C182.446 159.169 181.871 159.99 181.871 159.99Z" fill="url(#paint40_radial)"/>
<path d="M155.016 164.589C154.769 164.754 154.359 164.671 154.194 164.425C154.03 164.179 154.112 163.768 154.359 163.604C154.605 163.439 155.016 163.522 155.18 163.768C155.344 164.097 155.262 164.425 155.016 164.589ZM166.267 163.029C165.939 162.454 165.199 162.29 164.707 162.618C164.132 162.947 163.967 163.686 164.296 164.179C164.625 164.754 165.364 164.918 165.856 164.589C166.431 164.261 166.596 163.522 166.267 163.029ZM155.837 172.145C155.18 171.077 153.784 170.749 152.716 171.406C151.648 172.063 151.32 173.459 151.977 174.527C152.634 175.594 154.03 175.923 155.098 175.266C156.165 174.609 156.494 173.213 155.837 172.145ZM143.271 156.705C142.943 156.13 142.204 155.966 141.711 156.294C141.136 156.623 140.972 157.362 141.3 157.855C141.629 158.43 142.368 158.594 142.861 158.265C143.436 157.937 143.6 157.198 143.271 156.705Z" fill="url(#paint41_radial)"/>
<path d="M241.988 228.238C242.235 228.074 242.563 228.074 242.81 228.32C242.974 228.567 242.974 228.895 242.728 229.142C242.481 229.306 242.153 229.306 241.906 229.059C241.66 228.813 241.742 228.485 241.988 228.238ZM230.901 230.784C231.312 231.277 231.969 231.359 232.462 231.03C232.954 230.62 233.036 229.963 232.708 229.47C232.297 228.977 231.64 228.895 231.148 229.224C230.573 229.552 230.491 230.291 230.901 230.784ZM240.51 220.847C241.249 221.832 242.645 222.079 243.713 221.339C244.699 220.6 244.945 219.204 244.206 218.136C243.467 217.151 242.071 216.904 241.003 217.644C240.017 218.383 239.771 219.861 240.51 220.847ZM254.39 235.137C254.8 235.63 255.457 235.712 255.95 235.383C256.443 234.973 256.525 234.316 256.197 233.823C255.786 233.33 255.129 233.248 254.636 233.576C254.143 233.905 253.979 234.644 254.39 235.137Z" fill="url(#paint42_radial)"/>
<path opacity="0.5" d="M72.3125 123.197C72.3125 123.197 73.6265 123.033 74.0372 123.115C74.4478 123.197 75.5155 123.936 75.5155 123.936C75.5155 123.936 75.3512 122.622 75.4334 122.212C75.5155 121.801 76.2546 120.733 76.2546 120.733C76.2546 120.733 74.9406 120.898 74.5299 120.815C74.1193 120.733 73.0516 119.994 73.0516 119.994C73.0516 119.994 73.2159 121.308 73.1338 121.719C73.0516 122.129 72.3125 123.197 72.3125 123.197Z" fill="url(#paint43_radial)"/>
<path opacity="0.5" d="M67.7959 202.04C67.7959 202.04 69.1099 201.876 69.5206 201.958C69.9312 202.04 70.9989 202.779 70.9989 202.779C70.9989 202.779 70.8346 201.465 70.9168 201.054C70.9989 200.644 71.738 199.576 71.738 199.576C71.738 199.576 70.424 199.74 70.0133 199.658C69.6027 199.576 68.535 198.837 68.535 198.837C68.535 198.837 68.6993 200.151 68.6172 200.562C68.535 200.972 67.7959 202.04 67.7959 202.04Z" fill="url(#paint44_radial)"/>
<path opacity="0.5" d="M23.5293 191.281C23.5293 191.281 24.8433 191.117 25.254 191.199C25.6646 191.281 26.7323 192.02 26.7323 192.02C26.7323 192.02 26.568 190.706 26.6501 190.296C26.7323 189.885 27.4714 188.817 27.4714 188.817C27.4714 188.817 26.1574 188.982 25.7467 188.899C25.3361 188.817 24.2684 188.078 24.2684 188.078C24.2684 188.078 24.4327 189.392 24.3506 189.803C24.3506 190.213 23.5293 191.281 23.5293 191.281Z" fill="url(#paint45_radial)"/>
<path d="M73.2166 165.739C73.5451 165.493 74.0378 165.575 74.2842 165.903C74.5306 166.232 74.4485 166.725 74.12 166.971C73.7915 167.217 73.2987 167.135 73.0523 166.807C72.8059 166.478 72.8881 165.985 73.2166 165.739ZM57.9408 169.188C58.4336 169.845 59.4191 170.01 60.1583 169.517C60.8153 169.024 60.9795 168.039 60.4868 167.3C59.994 166.642 59.0085 166.478 58.2693 166.971C57.6123 167.546 57.448 168.531 57.9408 169.188ZM71.2455 155.473C72.3132 156.869 74.2021 157.198 75.5983 156.13C76.9944 155.062 77.323 153.174 76.2553 151.777C75.1876 150.381 73.2987 150.053 71.9025 151.12C70.5064 152.106 70.1778 154.077 71.2455 155.473ZM90.2991 175.184C90.7919 175.841 91.7774 176.005 92.5166 175.512C93.1736 175.02 93.3379 174.034 92.8451 173.295C92.3523 172.638 91.3668 172.474 90.6276 172.966C89.9706 173.541 89.8064 174.527 90.2991 175.184Z" fill="url(#paint46_radial)"/>
<path opacity="0.5" d="M311.141 4.68736C311.141 4.68736 312.455 4.5231 312.865 4.60523C313.276 4.68736 314.344 5.42651 314.344 5.42651C314.344 5.42651 314.179 4.11247 314.261 3.70183C314.344 3.29119 315.083 2.22353 315.083 2.22353C315.083 2.22353 313.769 2.38778 313.358 2.30565C312.947 2.22352 311.88 1.48438 311.88 1.48438C311.88 1.48438 312.044 2.79842 311.962 3.20906C311.962 3.61969 311.141 4.68736 311.141 4.68736Z" fill="url(#paint47_radial)"/>
</g>
<path opacity="0.5" d="M216.5 407C335.517 407 432 310.517 432 191.5C432 72.4827 335.517 -24 216.5 -24C97.4827 -24 1 72.4827 1 191.5C1 310.517 97.4827 407 216.5 407Z" fill="url(#paint48_radial)"/>
<path opacity="0.2" d="M558.255 57.7454C509.262 89.9891 464.623 128.8 414.745 159.715C364.866 190.631 307.61 213.873 249.025 210.258C247.844 210.184 246.59 210.11 245.557 209.594C239.876 206.864 244.155 198.305 248.804 194.099C281.785 164.069 312.037 131.013 338.968 95.4492C352.102 78.1099 364.497 60.1803 374.827 40.9964C379.402 32.5849 401.611 -9.69348 379.18 -12.4235C368.629 -13.6778 354.02 -7.70131 345.461 -1.94614C330.852 8.01476 319.563 22.0338 308.052 35.4625C283.704 63.7957 257.141 90.2843 228.808 114.633C219.216 122.823 209.329 130.866 197.892 136.252C195.458 137.432 192.727 138.465 190.071 137.801C182.029 135.883 184.611 123.635 189.481 116.92C202.91 98.3268 219.511 82.3156 233.752 64.4598C247.992 46.5302 214.273 62.9841 216.486 40.1847C217.667 27.8627 260.978 -23.2698 250.796 -30.3531C238.843 -38.617 222.536 -33.7472 209.403 -27.4755C172.215 -9.69348 140.267 17.0164 106.695 40.9226C73.1969 64.9025 36.5261 86.7426 -4.20286 92.6454C-7.22801 93.0881 -10.5483 93.3832 -13.2783 92.1289C-21.0995 88.4397 -18.8121 76.708 -14.6802 69.1082C-0.661205 43.1361 19.8508 21.2959 40.1415 -0.175308C71.7212 -33.5996 103.227 -67.0239 134.807 -100.448C149.637 -116.164 164.689 -132.028 182.693 -143.907C200.77 -155.786 222.389 -163.46 243.86 -160.951C216.412 -130.036 189.038 -99.1201 161.591 -68.2782C154.876 -60.7522 147.719 -51.0865 151.039 -41.5683C171.773 -40.314 190.514 -52.636 208.444 -63.0396C233.825 -77.7964 260.904 -89.6757 289.016 -98.3823C295.952 -100.522 305.101 -101.776 309.085 -95.6522C311.889 -91.3727 310.413 -85.6914 308.348 -80.9692C292.263 -43.6343 249.615 -21.2038 238.474 17.9756C237.515 21.2959 236.851 24.9852 238.4 28.0103C242.015 35.2412 252.936 32.5112 259.945 28.5268C298.977 6.39151 333.139 -23.196 369.884 -49.0943C406.554 -74.9188 447.283 -97.4968 491.923 -102.44C509.631 -104.433 530.807 -101.776 539.735 -86.2816C549.253 -69.6802 539.071 -48.9467 528.003 -33.3783C507.27 -4.08588 482.921 22.6978 455.695 46.0137C436.88 62.0987 416.368 77.0031 402.791 97.6627C397.774 105.263 393.716 113.822 393.642 122.897C393.568 131.972 398.438 141.491 406.85 144.811C411.424 146.582 416.515 146.434 421.385 145.918C462.852 141.638 499.523 114.559 541.063 110.944C547.999 110.354 555.82 110.723 560.616 115.814C565.633 121.126 565.265 129.906 561.723 136.252C558.107 142.597 551.983 147.098 546.007 151.23C509.41 176.317 469.271 196.165 427.067 210.036" fill="url(#paint49_radial)"/>
<path opacity="0.2" d="M430.534 85.6357C369.072 140.679 299.567 186.573 240.835 244.567C219.216 265.965 197.818 292.232 198.999 322.631C199.073 324.623 199.294 326.689 200.401 328.386C202.762 331.928 208.001 331.928 212.206 331.264C265.405 322.41 303.551 270.687 356.602 261.242C357.119 268.916 351.142 275.261 345.682 280.648C321.112 304.628 296.911 331.707 289.827 365.278C289.458 366.975 289.237 368.968 290.344 370.296C291.598 371.845 293.886 371.771 295.878 371.476C324.358 367.566 349.74 351.333 371.064 332.075C392.388 312.818 410.686 290.461 431.567 270.761C455.252 248.478 482.626 229.294 500.555 202.067C495.538 198.821 488.824 199.485 483.511 202.215C478.199 204.945 474.067 209.446 470.009 213.799C448.316 236.894 425.295 258.734 401.02 279.172C391.724 287.067 381.689 294.962 369.81 297.471C392.757 265.448 427.952 242.059 443.741 206.052C444.996 203.248 446.103 200.075 444.922 197.198C443.889 194.615 441.233 193.066 438.577 192.18C428.394 188.639 417.105 191.959 407.292 196.386C376.967 210.036 350.699 234.385 317.792 239.476C312.996 240.214 306.724 239.55 305.47 234.901C304.806 232.54 305.839 230.032 307.019 227.892C318.013 206.642 338.599 192.328 357.783 178.014C384.862 157.797 411.35 134.776 425.738 104.156C427.73 99.8761 429.501 94.8588 427.657 90.4317C425.812 86.0784 418.507 84.4552 416.441 88.7347" fill="url(#paint50_radial)"/>
<path opacity="0.6" d="M90.8311 -89.6015C59.6941 -54.0374 43.2402 1.89108 5.16753 29.9291C-0.0711517 33.7659 -5.60498 37.5289 -11.8766 39.0784C-18.2221 40.5541 -25.5267 39.3735 -29.8062 34.5038C-34.0857 29.634 -34.3809 22.4769 -33.2741 16.0577C-28.183 -13.0871 -0.292526 -33.2303 8.48781 -61.4897C10.3324 -67.3186 10.8489 -74.6233 6.27428 -78.6814C2.65884 -81.8541 -2.7274 -81.7066 -7.37581 -80.5998C-22.6492 -77.0582 -34.6022 -65.7691 -46.2601 -55.4393C-59.2462 -43.929 -72.7487 -33.2303 -86.8415 -23.1956C-92.5229 -19.1374 -99.9014 -15.0793 -106.099 -18.3258C-101.303 -30.7954 -92.154 -40.9776 -83.2261 -50.9385C-66.6246 -69.3846 -50.0232 -87.9782 -37.7012 -109.449C-34.3071 -115.352 -31.2081 -122.583 -34.0857 -128.781C-43.4563 -129.076 -51.8678 -123.395 -59.2462 -117.64C-97.8354 -87.7569 -129.046 -49.5366 -159.962 -11.6852C-167.783 -2.01949 -175.825 7.79382 -180.474 19.3042C-182.245 23.7312 -183.573 28.5272 -182.835 33.2494C-182.171 37.9716 -179.072 42.62 -174.497 43.9482C-171.694 44.7598 -168.742 44.3909 -165.865 43.653C-151.108 39.89 -140.114 28.0845 -129.194 17.5334C-118.2 7.05598 -106.394 -2.75732 -93.9986 -11.6114C-85.7348 -17.5142 -75.7739 -23.1956 -66.0344 -20.4656C-70.0925 -12.8658 -77.6185 -7.84845 -83.964 -2.09327C-90.3832 3.73569 -96.1384 11.6306 -94.9578 20.1896C-94.7365 21.8866 -94.1462 23.6575 -92.8181 24.7642C-90.2356 26.904 -86.325 25.5759 -83.3737 23.8788C-64.116 13.0325 -51.2037 -6.00384 -36.0041 -22.015C-32.3149 -25.8518 -27.7403 -29.8362 -22.5016 -29.3197C-29.1422 -9.17657 -43.3826 7.4987 -58.2132 22.6983C-89.0551 54.0566 -124.176 81.5044 -150.96 116.478C-159.076 127.029 -166.602 138.909 -167.783 152.116C-168.299 157.871 -167.488 163.995 -163.946 168.57C-156.346 178.309 -141.147 176.243 -129.563 171.89C-94.884 159.052 -65.0752 135.588 -38.1439 110.206C17.4157 57.8934 63.6785 -4.3068 97.7669 -72.5573C101.013 -79.0503 104.334 -85.8385 110.31 -89.8966L90.8311 -89.6015Z" fill="url(#paint51_radial)"/>
</g>
</g>
<defs>
<radialGradient id="paint0_radial" cx="0" cy="0" r="1" gradientUnits="userSpaceOnUse" gradientTransform="translate(187.017 175.005) scale(318.689 469.11)">
<stop offset="0.0592593" stop-color="#003C74"/>
<stop offset="0.963" stop-color="#002141"/>
</radialGradient>
<radialGradient id="paint1_radial" cx="0" cy="0" r="1" gradientUnits="userSpaceOnUse" gradientTransform="translate(3.15816 95.1896) scale(184.457)">
<stop offset="0.0592593" stop-color="#0A1656"/>
<stop offset="0.8889" stop-color="#4478AF"/>
</radialGradient>
<radialGradient id="paint2_radial" cx="0" cy="0" r="1" gradientUnits="userSpaceOnUse" gradientTransform="translate(3.15796 95.1903) scale(184.458 184.457)">
<stop offset="0.0592593" stop-color="#0A1656"/>
<stop offset="0.8889" stop-color="#4478AF"/>
</radialGradient>
<radialGradient id="paint3_radial" cx="0" cy="0" r="1" gradientUnits="userSpaceOnUse" gradientTransform="translate(369.091 307.996) scale(184.458)">
<stop offset="0.0592593" stop-color="#0A1656"/>
<stop offset="0.8889" stop-color="#4478AF"/>
</radialGradient>
<radialGradient id="paint4_radial" cx="0" cy="0" r="1" gradientUnits="userSpaceOnUse" gradientTransform="translate(369.09 307.997) scale(184.456)">
<stop offset="0.0592593" stop-color="#0A1656"/>
<stop offset="0.8889" stop-color="#4478AF"/>
</radialGradient>
<radialGradient id="paint5_radial" cx="0" cy="0" r="1" gradientUnits="userSpaceOnUse" gradientTransform="translate(291.287 215.678) scale(14.4754)">
<stop offset="0.0592593" stop-color="#0A1656"/>
<stop offset="0.8889" stop-color="#4478AF"/>
</radialGradient>
<radialGradient id="paint6_radial" cx="0" cy="0" r="1" gradientUnits="userSpaceOnUse" gradientTransform="translate(185.129 282.46) scale(133.841)">
<stop offset="0.0592593" stop-color="#0A1656"/>
<stop offset="0.8889" stop-color="#4478AF"/>
</radialGradient>
<radialGradient id="paint7_radial" cx="0" cy="0" r="1" gradientUnits="userSpaceOnUse" gradientTransform="translate(185.128 282.46) scale(133.842)">
<stop offset="0.0592593" stop-color="#0A1656"/>
<stop offset="0.8889" stop-color="#4478AF"/>
</radialGradient>
<radialGradient id="paint8_radial" cx="0" cy="0" r="1" gradientUnits="userSpaceOnUse" gradientTransform="translate(185.129 282.46) scale(133.841)">
<stop offset="0.0592593" stop-color="#0A1656"/>
<stop offset="0.8889" stop-color="#4478AF"/>
</radialGradient>
<radialGradient id="paint9_radial" cx="0" cy="0" r="1" gradientUnits="userSpaceOnUse" gradientTransform="translate(185.128 282.461) scale(133.842)">
<stop offset="0.0592593" stop-color="#0A1656"/>
<stop offset="0.8889" stop-color="#4478AF"/>
</radialGradient>
<radialGradient id="paint10_radial" cx="0" cy="0" r="1" gradientUnits="userSpaceOnUse" gradientTransform="translate(185.128 282.46) scale(133.839)">
<stop offset="0.0592593" stop-color="#0A1656"/>
<stop offset="0.8889" stop-color="#4478AF"/>
</radialGradient>
<radialGradient id="paint11_radial" cx="0" cy="0" r="1" gradientUnits="userSpaceOnUse" gradientTransform="translate(185.129 282.46) scale(133.841)">
<stop offset="0.0592593" stop-color="#0A1656"/>
<stop offset="0.8889" stop-color="#4478AF"/>
</radialGradient>
<radialGradient id="paint12_radial" cx="0" cy="0" r="1" gradientUnits="userSpaceOnUse" gradientTransform="translate(128.675 215.474) scale(10.5032)">
<stop offset="0.0592593" stop-color="#0A1656"/>
<stop offset="0.8889" stop-color="#4478AF"/>
</radialGradient>
<radialGradient id="paint13_radial" cx="0" cy="0" r="1" gradientUnits="userSpaceOnUse" gradientTransform="translate(233.45 176.738) rotate(175.135) scale(10.5033)">
<stop offset="0.0592593" stop-color="#0A1656"/>
<stop offset="0.8889" stop-color="#4478AF"/>
</radialGradient>
<radialGradient id="paint14_radial" cx="0" cy="0" r="1" gradientUnits="userSpaceOnUse" gradientTransform="translate(235.038 -45.6153) rotate(-135) scale(133.843)">
<stop offset="0.0592593" stop-color="#0A1656"/>
<stop offset="0.8889" stop-color="#4478AF"/>
</radialGradient>
<radialGradient id="paint15_radial" cx="0" cy="0" r="1" gradientUnits="userSpaceOnUse" gradientTransform="translate(235.036 -45.6145) rotate(-135) scale(133.843)">
<stop offset="0.0592593" stop-color="#0A1656"/>
<stop offset="0.8889" stop-color="#4478AF"/>
</radialGradient>
<radialGradient id="paint16_radial" cx="0" cy="0" r="1" gradientUnits="userSpaceOnUse" gradientTransform="translate(235.037 -45.6135) rotate(-135) scale(133.841)">
<stop offset="0.0592593" stop-color="#0A1656"/>
<stop offset="0.8889" stop-color="#4478AF"/>
</radialGradient>
<radialGradient id="paint17_radial" cx="0" cy="0" r="1" gradientUnits="userSpaceOnUse" gradientTransform="translate(227.59 41.6715) rotate(-135) scale(10.5033)">
<stop offset="0.0592593" stop-color="#0A1656"/>
<stop offset="0.8889" stop-color="#4478AF"/>
</radialGradient>
<radialGradient id="paint18_radial" cx="0" cy="0" r="1" gradientUnits="userSpaceOnUse" gradientTransform="translate(126.454 -4.47871) rotate(-135) scale(10.7721)">
<stop offset="0.0592593" stop-color="#0A1656"/>
<stop offset="0.8889" stop-color="#4478AF"/>
</radialGradient>
<radialGradient id="paint19_radial" cx="0" cy="0" r="1" gradientUnits="userSpaceOnUse" gradientTransform="translate(454.443 -40.3077) rotate(-135) scale(184.455)">
<stop offset="0.0592593" stop-color="#0A1656"/>
<stop offset="0.8889" stop-color="#4478AF"/>
</radialGradient>
<radialGradient id="paint20_radial" cx="0" cy="0" r="1" gradientUnits="userSpaceOnUse" gradientTransform="translate(304.798 16.3828) rotate(-135) scale(14.8458)">
<stop offset="0.0592593" stop-color="#0A1656"/>
<stop offset="0.8889" stop-color="#4478AF"/>
</radialGradient>
<radialGradient id="paint21_radial" cx="0" cy="0" r="1" gradientUnits="userSpaceOnUse" gradientTransform="translate(63.7024 155.222) rotate(-135) scale(184.458)">
<stop offset="0.0592593" stop-color="#0A1656"/>
<stop offset="0.8889" stop-color="#4478AF"/>
</radialGradient>
<radialGradient id="paint22_radial" cx="0" cy="0" r="1" gradientUnits="userSpaceOnUse" gradientTransform="translate(63.7031 155.223) rotate(-135) scale(184.457)">
<stop offset="0.0592593" stop-color="#0A1656"/>
<stop offset="0.8889" stop-color="#4478AF"/>
</radialGradient>
<radialGradient id="paint23_radial" cx="0" cy="0" r="1" gradientUnits="userSpaceOnUse" gradientTransform="translate(53.4382 275.517) rotate(-135) scale(14.4754)">
<stop offset="0.0592593" stop-color="#0A1656"/>
<stop offset="0.8889" stop-color="#4478AF"/>
</radialGradient>
<radialGradient id="paint24_radial" cx="0" cy="0" r="1" gradientUnits="userSpaceOnUse" gradientTransform="translate(312.828 187.4) scale(2.35952)">
<stop offset="0.0592593" stop-color="#E47E99"/>
<stop offset="0.5259" stop-color="#E43D99"/>
<stop offset="0.9926" stop-color="#B30058"/>
</radialGradient>
<radialGradient id="paint25_radial" cx="0" cy="0" r="1" gradientUnits="userSpaceOnUse" gradientTransform="translate(267.481 263.045) scale(2.28397)">
<stop offset="0.0592593" stop-color="#E47E99"/>
<stop offset="0.5259" stop-color="#E43D99"/>
<stop offset="0.9926" stop-color="#B30058"/>
</radialGradient>
<radialGradient id="paint26_radial" cx="0" cy="0" r="1" gradientUnits="userSpaceOnUse" gradientTransform="translate(306.381 239.367) scale(2.28407)">
<stop offset="0.0592593" stop-color="#E47E99"/>
<stop offset="0.5259" stop-color="#E43D99"/>
<stop offset="0.9926" stop-color="#B30058"/>
</radialGradient>
<radialGradient id="paint27_radial" cx="0" cy="0" r="1" gradientUnits="userSpaceOnUse" gradientTransform="translate(285.246 289.697) scale(14.4153)">
<stop offset="0.0592593" stop-color="#E47E99"/>
<stop offset="0.5259" stop-color="#E43D99"/>
<stop offset="0.9926" stop-color="#B30058"/>
</radialGradient>
<radialGradient id="paint28_radial" cx="0" cy="0" r="1" gradientUnits="userSpaceOnUse" gradientTransform="translate(13.6787 29.9389) scale(2.28406)">
<stop offset="0.0592593" stop-color="#E47E99"/>
<stop offset="0.5259" stop-color="#E43D99"/>
<stop offset="0.9926" stop-color="#B30058"/>
</radialGradient>
<radialGradient id="paint29_radial" cx="0" cy="0" r="1" gradientUnits="userSpaceOnUse" gradientTransform="translate(108.023 8.49293) scale(2.28396)">
<stop offset="0.0592593" stop-color="#E47E99"/>
<stop offset="0.5259" stop-color="#E43D99"/>
<stop offset="0.9926" stop-color="#B30058"/>
</radialGradient>
<radialGradient id="paint30_radial" cx="0" cy="0" r="1" gradientUnits="userSpaceOnUse" gradientTransform="translate(204.586 53.6675) scale(1.65726)">
<stop offset="0.0592593" stop-color="#E47E99"/>
<stop offset="0.5259" stop-color="#E43D99"/>
<stop offset="0.9926" stop-color="#B30058"/>
</radialGradient>
<radialGradient id="paint31_radial" cx="0" cy="0" r="1" gradientUnits="userSpaceOnUse" gradientTransform="translate(166.423 10.8723) scale(1.65726)">
<stop offset="0.0592593" stop-color="#E47E99"/>
<stop offset="0.5259" stop-color="#E43D99"/>
<stop offset="0.9926" stop-color="#B30058"/>
</radialGradient>
<radialGradient id="paint32_radial" cx="0" cy="0" r="1" gradientUnits="userSpaceOnUse" gradientTransform="translate(273.043 38.1063) scale(1.65726)">
<stop offset="0.0592593" stop-color="#E47E99"/>
<stop offset="0.5259" stop-color="#E43D99"/>
<stop offset="0.9926" stop-color="#B30058"/>
</radialGradient>
<radialGradient id="paint33_radial" cx="0" cy="0" r="1" gradientUnits="userSpaceOnUse" gradientTransform="translate(292.985 14.1411) scale(10.4198)">
<stop offset="0.0592593" stop-color="#E47E99"/>
<stop offset="0.5259" stop-color="#E43D99"/>
<stop offset="0.9926" stop-color="#B30058"/>
</radialGradient>
<radialGradient id="paint34_radial" cx="0" cy="0" r="1" gradientUnits="userSpaceOnUse" gradientTransform="translate(179.314 30.2097) scale(10.4597)">
<stop offset="0.0592593" stop-color="#E47E99"/>
<stop offset="0.5259" stop-color="#E43D99"/>
<stop offset="0.9926" stop-color="#B30058"/>
</radialGradient>
<radialGradient id="paint35_radial" cx="0" cy="0" r="1" gradientUnits="userSpaceOnUse" gradientTransform="translate(177.4 269.297) scale(1.71196)">
<stop offset="0.0592593" stop-color="#E47E99"/>
<stop offset="0.5259" stop-color="#E43D99"/>
<stop offset="0.9926" stop-color="#B30058"/>
</radialGradient>
<radialGradient id="paint36_radial" cx="0" cy="0" r="1" gradientUnits="userSpaceOnUse" gradientTransform="translate(242.756 196.506) scale(1.4521)">
<stop offset="0.0592593" stop-color="#E47E99"/>
<stop offset="0.5259" stop-color="#E43D99"/>
<stop offset="0.9926" stop-color="#B30058"/>
</radialGradient>
<radialGradient id="paint37_radial" cx="0" cy="0" r="1" gradientUnits="userSpaceOnUse" gradientTransform="translate(239.48 253.752) scale(1.4521)">
<stop offset="0.0592593" stop-color="#E47E99"/>
<stop offset="0.5259" stop-color="#E43D99"/>
<stop offset="0.9926" stop-color="#B30058"/>
</radialGradient>
<radialGradient id="paint38_radial" cx="0" cy="0" r="1" gradientUnits="userSpaceOnUse" gradientTransform="translate(207.372 245.942) scale(1.4521)">
<stop offset="0.0592593" stop-color="#E47E99"/>
<stop offset="0.5259" stop-color="#E43D99"/>
<stop offset="0.9926" stop-color="#B30058"/>
</radialGradient>
<radialGradient id="paint39_radial" cx="0" cy="0" r="1" gradientUnits="userSpaceOnUse" gradientTransform="translate(107.328 182.585) scale(1.4521)">
<stop offset="0.0592593" stop-color="#E47E99"/>
<stop offset="0.5259" stop-color="#E43D99"/>
<stop offset="0.9926" stop-color="#B30058"/>
</radialGradient>
<radialGradient id="paint40_radial" cx="0" cy="0" r="1" gradientUnits="userSpaceOnUse" gradientTransform="translate(183.346 159.103) scale(1.4521)">
<stop offset="0.0592593" stop-color="#E47E99"/>
<stop offset="0.5259" stop-color="#E43D99"/>
<stop offset="0.9926" stop-color="#B30058"/>
</radialGradient>
<radialGradient id="paint41_radial" cx="0" cy="0" r="1" gradientUnits="userSpaceOnUse" gradientTransform="translate(153.802 165.857) scale(11.2908)">
<stop offset="0.0592593" stop-color="#E47E99"/>
<stop offset="0.5259" stop-color="#E43D99"/>
<stop offset="0.9926" stop-color="#B30058"/>
</radialGradient>
<radialGradient id="paint42_radial" cx="0" cy="0" r="1" gradientUnits="userSpaceOnUse" gradientTransform="translate(243.543 226.413) scale(11.2002)">
<stop offset="0.0592593" stop-color="#E47E99"/>
<stop offset="0.5259" stop-color="#E43D99"/>
<stop offset="0.9926" stop-color="#B30058"/>
</radialGradient>
<radialGradient id="paint43_radial" cx="0" cy="0" r="1" gradientUnits="userSpaceOnUse" gradientTransform="translate(74.3181 121.951) scale(2.00129)">
<stop offset="0.0592593" stop-color="#E47E99"/>
<stop offset="0.5259" stop-color="#E43D99"/>
<stop offset="0.9926" stop-color="#B30058"/>
</radialGradient>
<radialGradient id="paint44_radial" cx="0" cy="0" r="1" gradientUnits="userSpaceOnUse" gradientTransform="translate(69.8047 200.846) scale(2.00129)">
<stop offset="0.0592593" stop-color="#E47E99"/>
<stop offset="0.5259" stop-color="#E43D99"/>
<stop offset="0.9926" stop-color="#B30058"/>
</radialGradient>
<radialGradient id="paint45_radial" cx="0" cy="0" r="1" gradientUnits="userSpaceOnUse" gradientTransform="translate(25.555 190.083) scale(2.00128)">
<stop offset="0.0592593" stop-color="#E47E99"/>
<stop offset="0.5259" stop-color="#E43D99"/>
<stop offset="0.9926" stop-color="#B30058"/>
</radialGradient>
<radialGradient id="paint46_radial" cx="0" cy="0" r="1" gradientUnits="userSpaceOnUse" gradientTransform="translate(75.4051 163.168) scale(15.436)">
<stop offset="0.0592593" stop-color="#E47E99"/>
<stop offset="0.5259" stop-color="#E43D99"/>
<stop offset="0.9926" stop-color="#B30058"/>
</radialGradient>
<radialGradient id="paint47_radial" cx="0" cy="0" r="1" gradientUnits="userSpaceOnUse" gradientTransform="translate(313.181 3.48328) scale(2.00128)">
<stop offset="0.0592593" stop-color="#E47E99"/>
<stop offset="0.5259" stop-color="#E43D99"/>
<stop offset="0.9926" stop-color="#B30058"/>
</radialGradient>
<radialGradient id="paint48_radial" cx="0" cy="0" r="1" gradientUnits="userSpaceOnUse" gradientTransform="translate(216.517 191.524) scale(215.473)">
<stop offset="0.0592593" stop-color="#003566"/>
<stop offset="0.322" stop-color="#003261" stop-opacity="0.7092"/>
<stop offset="0.6269" stop-color="#00284D" stop-opacity="0.3719"/>
<stop offset="0.9515" stop-color="#000B36" stop-opacity="0.012652"/>
</radialGradient>
<radialGradient id="paint49_radial" cx="0" cy="0" r="1" gradientUnits="userSpaceOnUse" gradientTransform="translate(272.957 24.602) scale(244.492)">
<stop offset="0.0592593" stop-color="#002F71"/>
<stop offset="0.322" stop-color="#002F71" stop-opacity="0.7092"/>
<stop offset="0.6269" stop-color="#002A65" stop-opacity="0.3719"/>
<stop offset="0.9515" stop-color="#001E47" stop-opacity="0.012652"/>
<stop offset="0.963" stop-color="#00204E" stop-opacity="0"/>
</radialGradient>
<radialGradient id="paint50_radial" cx="0" cy="0" r="1" gradientUnits="userSpaceOnUse" gradientTransform="translate(302.5 275.5) rotate(-13.9124) scale(195.018 210.033)">
<stop offset="0.0592593" stop-color="#00407B"/>
<stop offset="0.322" stop-color="#003F7A" stop-opacity="0.7092"/>
<stop offset="0.6269" stop-color="#00376B" stop-opacity="0.3719"/>
<stop offset="0.9515" stop-color="#00092C" stop-opacity="0.012652"/>
<stop offset="0.963" stop-color="#004789" stop-opacity="0"/>
</radialGradient>
<radialGradient id="paint51_radial" cx="0" cy="0" r="1" gradientUnits="userSpaceOnUse" gradientTransform="translate(-36.33 23.3585) scale(149.471)">
<stop offset="0.0592593" stop-color="#003A70"/>
<stop offset="0.322" stop-color="#003A70" stop-opacity="0.7092"/>
<stop offset="0.6269" stop-color="#00396D" stop-opacity="0.3719"/>
<stop offset="0.9515" stop-color="#00172C" stop-opacity="0.012652"/>
<stop offset="0.963" stop-color="#002A52" stop-opacity="0"/>
</radialGradient>
</defs>
</svg>
