<svg id="Layer_1" data-name="Layer 1" xmlns="http://www.w3.org/2000/svg" xmlns:xlink="http://www.w3.org/1999/xlink" viewBox="0 0 99.56 61.43"><defs><style>.cls-1{fill:url(#linear-gradient);}</style><linearGradient id="linear-gradient" x1="263.1" y1="-138.53" x2="277.46" y2="-214.2" gradientTransform="matrix(1, 0, 0, -1, -221, -145.99)" gradientUnits="userSpaceOnUse"><stop offset="0" stop-color="#85e4ff"/><stop offset="1" stop-color="#00c8ff"/></linearGradient></defs><path class="cls-1" d="M98.17,59.81c-3.87-.12-7.73-.42-11.58-.81s-7.71-.93-11.51-1.54a209.75,209.75,0,0,1-22.71-4.94Q46.79,51,41.28,49.05c-3.65-1.26-7.28-2.66-10.84-4.19-.89-.36-1.78-.77-2.66-1.17s-1.76-.79-2.65-1.2a48.84,48.84,0,0,1-5.08-2.78,27.73,27.73,0,0,1-2.37-1.64,20.49,20.49,0,0,1-2.14-1.93,9.63,9.63,0,0,1-1.6-2.36A5.19,5.19,0,0,1,13.51,31a5.76,5.76,0,0,1,1.08-2.59,12.41,12.41,0,0,1,1.92-2.11A29.6,29.6,0,0,1,21.28,23,96.81,96.81,0,0,1,31.8,18.11c3.58-1.51,7.19-2.9,10.73-4.49.89-.4,1.76-.82,2.62-1.28a22.74,22.74,0,0,0,2.5-1.51c.2-.15.38-.28.58-.45a2.06,2.06,0,0,0,.52-.54A1.56,1.56,0,0,0,49,9.13a1.3,1.3,0,0,0-.23-.74,3.59,3.59,0,0,0-1.13-1,11.5,11.5,0,0,0-1.32-.64,35.13,35.13,0,0,0-5.58-1.63c-1.9-.42-3.81-.77-5.72-1.1-3.83-.63-7.68-1.13-11.54-1.57C15.79,1.61,8.07,1,.32.46V.53q11.63.75,23.18,2.08c3.86.46,7.72,1,11.53,1.62,1.9.33,3.81.68,5.71,1.1A35.79,35.79,0,0,1,46.29,7a9.63,9.63,0,0,1,1.29.63,3,3,0,0,1,1.07.9,1,1,0,0,1,.21.62,1.16,1.16,0,0,1-.22.62,4.78,4.78,0,0,1-1.07.93,19,19,0,0,1-2.48,1.49c-.87.43-1.73.85-2.62,1.25-3.55,1.59-7.15,3-10.74,4.47a95.62,95.62,0,0,0-10.56,4.94,28.67,28.67,0,0,0-4.81,3.3,11.36,11.36,0,0,0-2,2.17A6.15,6.15,0,0,0,13.25,31a5.21,5.21,0,0,0,.44,2.9,9.58,9.58,0,0,0,1.63,2.43,17.79,17.79,0,0,0,2.18,2A28.48,28.48,0,0,0,19.89,40,50.69,50.69,0,0,0,25,42.77c.87.43,1.77.81,2.65,1.22s1.77.81,2.67,1.17c3.56,1.55,7.19,2.93,10.84,4.21s7.37,2.43,11.1,3.49a206.65,206.65,0,0,0,22.74,5c3.83.63,7.68,1.14,11.54,1.58s7.74.73,11.63.84Z"/></svg>