<svg id="Layer_1" data-name="Layer 1" xmlns="http://www.w3.org/2000/svg" xmlns:xlink="http://www.w3.org/1999/xlink" viewBox="0 0 99.56 61.43"><defs><style>.cls-1{fill:url(#linear-gradient);}</style><linearGradient id="linear-gradient" x1="263.61" y1="-138.36" x2="278.05" y2="-215.07" gradientTransform="matrix(1, 0, 0, -1, -221, -145.99)" gradientUnits="userSpaceOnUse"><stop offset="0" stop-color="#85e4ff"/><stop offset="1" stop-color="#00c8ff"/></linearGradient></defs><path class="cls-1" d="M99.34,60.62c-3.92-.12-7.83-.43-11.74-.83s-7.81-.95-11.66-1.58a212.34,212.34,0,0,1-23-5Q47.29,51.6,41.7,49.64c-3.7-1.28-7.37-2.71-11-4.26-.91-.36-1.8-.78-2.7-1.19s-1.78-.8-2.68-1.22a50.2,50.2,0,0,1-5.15-2.82c-.82-.52-1.62-1.06-2.39-1.66a19.29,19.29,0,0,1-2.17-2A9.25,9.25,0,0,1,14,34.13a5.29,5.29,0,0,1-.43-2.8,5.88,5.88,0,0,1,1.09-2.63,12,12,0,0,1,2-2.13,28.94,28.94,0,0,1,4.84-3.31,99.36,99.36,0,0,1,10.66-5c3.63-1.52,7.29-2.93,10.88-4.53.91-.41,1.78-.83,2.65-1.29a24.09,24.09,0,0,0,2.54-1.53,6.26,6.26,0,0,0,.59-.46,2.26,2.26,0,0,0,.53-.54,1.49,1.49,0,0,0,.28-.73,1.23,1.23,0,0,0-.23-.74,3.57,3.57,0,0,0-1.14-1,11.85,11.85,0,0,0-1.34-.65,36.83,36.83,0,0,0-5.65-1.66c-1.93-.42-3.86-.78-5.79-1.12-3.88-.64-7.78-1.16-11.7-1.61C15.93,1.53,8.1.87.25.34V.42Q12,1.2,23.73,2.55c3.92.47,7.82,1,11.68,1.66,1.93.34,3.86.7,5.79,1.12A39.49,39.49,0,0,1,46.83,7a11.35,11.35,0,0,1,1.31.64,3.2,3.2,0,0,1,1.08.91,1.12,1.12,0,0,1,.22.64,1.16,1.16,0,0,1-.24.62,4.7,4.7,0,0,1-1.08.95,18.81,18.81,0,0,1-2.52,1.5c-.87.44-1.75.86-2.65,1.27-3.6,1.6-7.25,3-10.89,4.51a100.12,100.12,0,0,0-10.71,5,30.09,30.09,0,0,0-4.88,3.34,12,12,0,0,0-2,2.2,6.27,6.27,0,0,0-1.14,2.75,5.2,5.2,0,0,0,.44,2.94,9.5,9.5,0,0,0,1.65,2.45,16.82,16.82,0,0,0,2.2,2A29.19,29.19,0,0,0,20,40.41a50.14,50.14,0,0,0,5.18,2.84c.87.44,1.79.83,2.68,1.24s1.79.83,2.7,1.19c3.61,1.58,7.28,3,11,4.28S49,52.44,52.81,53.52a209.93,209.93,0,0,0,23,5.11c3.88.64,7.78,1.16,11.7,1.61s7.84.76,11.78.87Z"/></svg>