<svg id="Layer_1" data-name="Layer 1" xmlns="http://www.w3.org/2000/svg" xmlns:xlink="http://www.w3.org/1999/xlink" viewBox="0 0 76.93 61.43"><defs><style>.cls-1{fill:url(#linear-gradient);}</style><linearGradient id="linear-gradient" x1="261.85" y1="-144.37" x2="257.55" y2="-208.53" gradientTransform="matrix(1, 0, 0, -1, -221, -145.99)" gradientUnits="userSpaceOnUse"><stop offset="0" stop-color="#85e4ff"/><stop offset="1" stop-color="#00c8ff"/></linearGradient></defs><path class="cls-1" d="M1.14,59.76c3.19-.48,6.36-1.12,9.51-1.83S17,56.39,20,55.5a174.89,174.89,0,0,0,18.32-6.38q4.47-1.84,8.84-4c2.9-1.41,5.77-2.94,8.56-4.56.71-.39,1.4-.81,2.09-1.24l2.08-1.25a46.13,46.13,0,0,0,3.94-2.82c.62-.5,1.22-1,1.79-1.59a17,17,0,0,0,1.58-1.82,7.75,7.75,0,0,0,1.09-2.12,4.3,4.3,0,0,0,.08-2.33,5,5,0,0,0-1.15-2,10.36,10.36,0,0,0-1.81-1.56,24.83,24.83,0,0,0-4.28-2.23,81.28,81.28,0,0,0-9.21-3c-3.12-.89-6.25-1.68-9.35-2.65-.78-.24-1.54-.49-2.3-.79a20.08,20.08,0,0,1-2.22-1c-.18-.11-.35-.19-.53-.32a1.79,1.79,0,0,1-.48-.39,1.38,1.38,0,0,1-.31-.57,1,1,0,0,1,.12-.63,3.17,3.17,0,0,1,.84-.91,9,9,0,0,1,1-.66,30.08,30.08,0,0,1,4.46-1.91c1.54-.54,3.08-1,4.63-1.48,3.11-.91,6.25-1.72,9.4-2.47,6.32-1.5,12.65-2.81,19-4V.81q-9.54,1.8-19,4.05c-3.16.77-6.3,1.58-9.39,2.5-1.55.46-3.1.94-4.63,1.48a31.1,31.1,0,0,0-4.44,1.91,10.27,10.27,0,0,0-1,.65,2.73,2.73,0,0,0-.8.86.84.84,0,0,0-.11.54.89.89,0,0,0,.25.48,3.7,3.7,0,0,0,1,.67,16.58,16.58,0,0,0,2.2,1c.76.28,1.52.54,2.3.78,3.1,1,6.23,1.75,9.35,2.62a82,82,0,0,1,9.25,3,24.19,24.19,0,0,1,4.31,2.25,10.15,10.15,0,0,1,1.87,1.6,5.24,5.24,0,0,1,1.2,2.13,4.34,4.34,0,0,1-.07,2.45A7.68,7.68,0,0,1,67.44,32a14.94,14.94,0,0,1-1.6,1.86c-.57.58-1.2,1.11-1.82,1.63a40.71,40.71,0,0,1-4,2.83c-.67.45-1.38.85-2.07,1.28s-1.38.85-2.09,1.24c-2.8,1.64-5.66,3.15-8.56,4.57s-5.87,2.76-8.85,4a176.22,176.22,0,0,1-18.34,6.43c-3.11.9-6.25,1.71-9.41,2.46S4.4,59.68,1.19,60.16Z"/></svg>